<!DOCTYPE svg PUBLIC "-//W3C//DTD SVG 20010904//EN" "http://www.w3.org/TR/2001/REC-SVG-20010904/DTD/svg10.dtd">
<svg version="1.0" xmlns="http://www.w3.org/2000/svg" width="1600px" height="949px" viewBox="0 0 16000 9490" preserveAspectRatio="xMidYMid meet">
<g id="layer101" fill="#020202" stroke="none">
 <path d="M0 4745 l0 -4745 8000 0 8000 0 0 4745 0 4745 -8000 0 -8000 0 0 -4745z"/>
 </g>
<g id="layer102" fill="#ffffff" stroke="none">
 <path d="M0 4745 l0 -4745 8000 0 8000 0 0 4745 0 4745 -8000 0 -8000 0 0 -4745z m7217 4609 c840 -68 1609 -330 2298 -782 926 -606 1695 -1516 2355 -2784 l102 -197 96 -37 c775 -298 1561 -758 2307 -1348 229 -181 447 -376 665 -595 497 -498 762 -889 832 -1230 37 -180 10 -294 -86 -358 -62 -42 -100 -53 -217 -60 -389 -24 -935 196 -1479 596 -775 570 -1678 1597 -2434 2771 -66 102 -146 222 -178 267 l-58 81 -123 40 c-192 63 -302 93 -542 147 -107 23 -365 62 -510 77 -189 18 -571 16 -722 -5 -210 -29 -437 -93 -569 -160 l-62 -32 160 -185 c1165 -1339 2227 -2443 3398 -3532 l104 -98 -29 -30 -28 -30 -136 6 c-401 15 -679 40 -949 84 -603 100 -1157 278 -1687 543 -878 438 -1494 1078 -1674 1738 -38 138 -53 272 -49 443 l3 160 -214 185 c-118 102 -442 385 -720 628 l-506 442 -23 -77 c-82 -279 -149 -454 -237 -627 -369 -719 -877 -1075 -1535 -1075 -449 0 -759 162 -975 510 -186 301 -266 600 -266 988 0 391 77 732 235 1045 134 265 337 553 612 869 l93 106 -152 100 c-480 313 -968 594 -1286 742 -573 266 -1063 400 -1515 417 -615 22 -1013 -157 -1100 -494 -33 -125 -14 -283 46 -396 35 -65 115 -160 130 -155 6 2 16 21 23 41 36 104 112 157 224 157 157 0 240 -64 242 -187 2 -92 -63 -176 -165 -209 -37 -13 -71 -15 -138 -12 -77 5 -100 11 -163 42 -124 62 -226 182 -282 334 -20 52 -26 93 -31 184 -6 146 7 217 60 328 76 158 247 296 459 369 416 143 1030 115 1604 -74 370 -121 794 -314 1193 -542 387 -221 902 -541 964 -599 18 -16 65 -54 103 -84 349 -268 1343 -1099 1710 -1429 50 -44 93 -81 96 -81 11 0 29 201 35 400 19 589 -87 1119 -341 1706 -37 88 -70 145 -117 205 -36 46 -145 190 -242 319 l-177 234 53 27 c208 104 530 176 873 193 118 6 461 -5 642 -20z m5058 -8202 c581 -332 1019 -644 1339 -953 l111 -108 -351 -1 -352 0 -48 77 c-162 261 -361 500 -614 735 -118 111 -295 255 -387 316 -29 19 -53 36 -53 38 0 2 37 4 83 4 l82 0 190 -108z"/>
 <path d="M6640 9279 c-209 -8 -440 -32 -440 -46 0 -8 336 -493 355 -512 9 -9 51 -17 123 -22 359 -26 752 -181 1168 -461 378 -255 698 -510 942 -751 l122 -120 0 -55 0 -54 -112 107 c-155 148 -396 354 -589 502 -460 352 -930 607 -1286 697 -96 24 -291 51 -301 42 -8 -9 639 -856 1088 -1426 272 -345 648 -805 944 -1155 93 -110 171 -202 172 -204 2 -2 41 12 86 31 304 128 593 181 983 180 375 -1 726 -51 1220 -177 116 -29 211 -52 213 -50 4 3 -55 112 -171 315 -300 525 -710 1125 -1003 1468 -310 362 -675 686 -1138 1009 -719 503 -1458 715 -2376 682z"/>
 <path d="M6387 8133 c114 -310 182 -568 224 -843 39 -252 35 -819 -7 -1056 -5 -29 2 -37 123 -145 104 -94 705 -625 1197 -1061 55 -48 103 -88 107 -88 3 0 14 26 23 59 25 90 106 247 173 336 71 94 210 230 307 300 122 89 113 78 90 107 -10 14 -176 194 -369 399 -725 774 -835 892 -1120 1204 -342 376 -491 545 -652 741 -65 78 -121 143 -125 143 -4 1 9 -43 29 -96z"/>
 <path d="M4497 7703 c-111 -116 -236 -263 -337 -398 -277 -370 -415 -667 -489 -1055 -43 -227 -59 -574 -32 -720 67 -375 155 -574 354 -801 207 -237 461 -332 846 -316 208 9 358 44 530 123 473 218 935 879 1081 1546 l22 97 -39 34 c-407 363 -1546 1313 -1834 1530 l-36 27 -66 -67z"/>
 <path d="M8640 5588 c-95 -75 -209 -193 -269 -278 -95 -135 -177 -323 -196 -450 l-6 -45 58 -51 c201 -175 766 -644 1103 -915 850 -683 1716 -1277 2257 -1547 204 -103 496 -215 619 -238 42 -8 44 6 7 36 -45 35 -725 678 -1068 1010 -71 69 -211 204 -310 299 -285 276 -628 624 -775 786 -115 127 -1046 1133 -1266 1368 -40 42 -76 77 -81 77 -4 -1 -37 -24 -73 -52z"/>
 <path d="M12030 5466 c0 -14 213 -430 327 -639 378 -693 731 -1181 1202 -1660 625 -637 1299 -1047 1816 -1107 194 -22 294 -9 356 47 153 138 19 376 -510 903 -719 717 -1849 1604 -2921 2291 -238 153 -270 172 -270 165z"/>
 <path d="M8150 4578 c0 -286 93 -557 294 -863 311 -473 776 -858 1411 -1170 616 -302 1203 -470 1900 -544 272 -28 335 -33 335 -22 0 5 -26 19 -57 31 -290 105 -622 266 -928 450 -688 413 -1514 1038 -2687 2032 -141 120 -259 218 -262 218 -4 0 -6 -60 -6 -132z"/>
 </g>

</svg>